<svg id="left" xmlns="http://www.w3.org/2000/svg" xmlns:xlink="http://www.w3.org/1999/xlink" width="283.6" height="161.2" viewBox="0 0 283.6 161.2">
  <defs>
    <clipPath id="clip-path">
      <path id="Path_3" data-name="Path 3" d="M38.6,27H8.3V97H24.5V77.7H38.6C57.3,77.7,69,68,69,52.4,69,36.7,57.3,27,38.6,27Zm-.9,37.5H24.5V40.2H37.7c9.9,0,14.9,4.5,14.9,12.2C52.6,60,47.6,64.5,37.7,64.5ZM141.5,97,125.8,74.5c9.1-3.9,14.4-11.6,14.4-22.1,0-15.7-11.7-25.4-30.4-25.4H79.5V97H95.7V77.5h14.9L124.1,97ZM123.8,52.4c0,7.6-5,12.2-14.9,12.2H95.7V40.2h13.2C118.8,40.2,123.8,44.7,123.8,52.4Zm62.1,45.8c22,0,38.3-15.3,38.3-36.2s-16.3-36.2-38.3-36.2a42.34,42.34,0,0,0-17.885,3.825C155.7,35.288,147.6,47.294,147.6,62,147.6,82.8,163.8,98.2,185.9,98.2Zm0-13.8C173.4,84.4,164,75.3,164,62s9.4-22.4,21.9-22.4,21.9,9.1,21.9,22.4S198.4,84.4,185.9,84.4Z" transform="translate(188 170)" fill="#d6d6d6"/>
    </clipPath>
    <linearGradient id="linear-gradient" x1="1.375" y1="0.102" x2="0.283" y2="0.707" gradientUnits="objectBoundingBox">
      <stop offset="0" stop-color="#20743f"/>
      <stop offset="1" stop-color="#103a20"/>
    </linearGradient>
  </defs>
  <g id="Mask_Group_1" data-name="Mask Group 1" transform="translate(-190.4 -107)" clip-path="url(#clip-path)">
    <path id="Path_2" data-name="Path 2" d="M32.144,0H276.376A32.144,32.144,0,0,1,308.52,32.144V294.969a32.144,32.144,0,0,1-32.144,32.144H32.144A32.144,32.144,0,0,1,0,294.969V32.144A32.144,32.144,0,0,1,32.144,0Z" transform="translate(164.249 32.138)" fill="url(#linear-gradient)"/>
  </g>
  <path id="Path_7" data-name="Path 7" d="M22.8,97H39V40.2H61.4V27H.4V40.2H22.8Zm108.3,0L115.4,74.5c9.1-3.9,14.4-11.6,14.4-22.1,0-15.7-11.7-25.4-30.4-25.4H69.1V97H85.3V77.5h14.9L113.7,97ZM113.4,52.4c0,7.6-5,12.2-14.9,12.2H85.3V40.2H98.5C108.4,40.2,113.4,44.7,113.4,52.4ZM193.9,97h17L179.6,27h-16L132.4,97H149l6.2-15h32.5ZM160.4,69.7l11.1-26.8,11.1,26.8ZM265.1,97H284L253.3,58.2l29-31.2h-18l-31,32.7V27H217.2V97h16.1V79.3l9.4-9.8Z" transform="translate(-0.4 -27)" fill="#f5f5f5"/>
</svg>
